<svg xmlns="http://www.w3.org/2000/svg" viewBox="0 0 512 512">
  <!-- Background circle -->
  <circle cx="256" cy="256" r="256" fill="#4A90E2"/>
  
  <!-- Calendar background -->
  <rect x="106" y="96" width="300" height="320" rx="20" fill="white"/>
  
  <!-- Calendar header section -->
  <rect x="106" y="96" width="300" height="80" rx="20" fill="#2C3E50"/>
  
  <!-- Month tabs at top -->
  <rect x="116" y="106" width="60" height="30" rx="5" fill="#34495E"/>
  <rect x="186" y="106" width="60" height="30" rx="5" fill="#34495E"/>
  <rect x="256" y="106" width="60" height="30" rx="5" fill="#34495E"/>
  
  <!-- Calendar grid horizontal lines -->
  <line x1="156" y1="226" x2="356" y2="226" stroke="#E0E0E0" stroke-width="2"/>
  <line x1="156" y1="276" x2="356" y2="276" stroke="#E0E0E0" stroke-width="2"/>
  <line x1="156" y1="326" x2="356" y2="326" stroke="#E0E0E0" stroke-width="2"/>
  
  <!-- Calendar grid vertical lines -->
  <line x1="206" y1="196" x2="206" y2="356" stroke="#E0E0E0" stroke-width="2"/>
  <line x1="256" y1="196" x2="256" y2="356" stroke="#E0E0E0" stroke-width="2"/>
  <line x1="306" y1="196" x2="306" y2="356" stroke="#E0E0E0" stroke-width="2"/>
  
  <!-- Highlighted date -->
  <rect x="206" y="276" width="50" height="50" fill="#4A90E2" opacity="0.3"/>
  <text x="221" y="308" font-family="Arial" font-size="24" fill="#2C3E50">15</text>
  
  <!-- Work indicators -->
  <circle cx="186" y="246" r="3" fill="#4A90E2"/>
  <circle cx="286" y="296" r="3" fill="#4A90E2"/>
  <circle cx="336" y="326" r="3" fill="#4A90E2"/>
</svg>